<svg width="1466" height="667" viewBox="0 0 1466 667" preserveAspectRatio="none" xmlns="http://www.w3.org/2000/svg" xmlns:xlink="http://www.w3.org/1999/xlink" overflow="hidden"><defs></defs><g><text font-family="Arial" font-weight="700" font-size="28" x="81.1799" y="40.9902">Иницииране на CSS/XPath стратегия чрез локалния OpenAPI интерфейс (/docs)</text><g><rect x="51.2485" y="153.516" width="8" height="414.992" fill-opacity="0"/><line x1="55" y1="153.516" x2="55" y2="568.508" stroke="#181818" stroke-width="0.5" stroke-dasharray="5 5"/></g><g><rect x="319.218" y="153.516" width="8" height="414.992" fill-opacity="0"/><line x1="322.689" y1="153.516" x2="322.689" y2="568.508" stroke="#181818" stroke-width="0.5" stroke-dasharray="5 5"/></g><g><rect x="493.079" y="153.516" width="8" height="414.992" fill-opacity="0"/><line x1="496.213" y1="153.516" x2="496.213" y2="568.508" stroke="#181818" stroke-width="0.5" stroke-dasharray="5 5"/></g><g><rect x="859.347" y="153.516" width="8" height="414.992" fill-opacity="0"/><line x1="862.705" y1="153.516" x2="862.705" y2="568.508" stroke="#181818" stroke-width="0.5" stroke-dasharray="5 5"/></g><g><rect x="1330.33" y="153.516" width="8" height="414.992" fill-opacity="0"/><line x1="1334.2" y1="153.516" x2="1334.2" y2="568.508" stroke="#181818" stroke-width="0.5" stroke-dasharray="5 5"/></g><g><rect x="1427.46" y="153.516" width="8" height="414.992" fill-opacity="0"/><line x1="1431.46" y1="153.516" x2="1431.46" y2="568.508" stroke="#181818" stroke-width="0.5" stroke-dasharray="5 5"/></g><g><text font-family="Arial" font-size="15" x="5" y="132.517">Потребител</text><text font-family="Arial" font-size="15" x="26.4893" y="149.978">(/docs)</text><ellipse cx="55.2485" cy="67.0938" rx="8" ry="8" stroke="#181818" stroke-width="0.5" fill="#E2E2F0"/><path d="M55.2485 75.0938 55.2485 102.094M42.2485 83.0938 68.2485 83.0938M55.2485 102.094 42.2485 117.094M55.2485 102.094 68.2485 117.094" stroke="#181818" stroke-width="0.5" fill="none"/></g><g><text font-family="Arial" font-size="15" x="5" y="581.431">Потребител</text><text font-family="Arial" font-size="15" x="26.4893" y="598.892">(/docs)</text><ellipse cx="55.2485" cy="610.93" rx="8" ry="8" stroke="#181818" stroke-width="0.5" fill="#E2E2F0"/><path d="M55.2485 618.93 55.2485 645.93M42.2485 626.93 68.2485 626.93M55.2485 645.93 42.2485 660.93M55.2485 645.93 68.2485 660.93" stroke="#181818" stroke-width="0.5" fill="none"/></g><g><rect x="273.689" y="91.9531" rx="2.5" ry="2.5" width="99.0586" height="60.5625" stroke="#181818" stroke-width="0.5" fill="#E2E2F0"/><text font-family="Arial" font-size="20" x="280.689" y="117.518">OpenAPI</text><text font-family="Arial" font-size="20" x="312.95" y="140.799">UI</text></g><g><rect x="273.689" y="567.508" rx="2.5" ry="2.5" width="99.0586" height="60.5625" stroke="#181818" stroke-width="0.5" fill="#E2E2F0"/><text font-family="Arial" font-size="20" x="280.689" y="593.072">OpenAPI</text><text font-family="Arial" font-size="20" x="312.95" y="616.354">UI</text></g><g><rect x="452.213" y="91.9531" rx="2.5" ry="2.5" width="89.7324" height="60.5625" stroke="#181818" stroke-width="0.5" fill="#E2E2F0"/><text font-family="Arial" font-size="20" x="463.49" y="117.518">Router</text><text font-family="Arial" font-size="20" x="459.213" y="140.799">(/crawl)</text></g><g><rect x="452.213" y="567.508" rx="2.5" ry="2.5" width="89.7324" height="60.5625" stroke="#181818" stroke-width="0.5" fill="#E2E2F0"/><text font-family="Arial" font-size="20" x="463.49" y="593.072">Router</text><text font-family="Arial" font-size="20" x="459.213" y="616.354">(/crawl)</text></g><g><rect x="812.705" y="91.9531" rx="2.5" ry="2.5" width="101.285" height="60.5625" stroke="#181818" stroke-width="0.5" fill="#E2E2F0"/><text font-family="Arial" font-size="20" x="819.705" y="117.518">Crawling</text><text font-family="Arial" font-size="20" x="826.389" y="140.799">Service</text></g><g><rect x="812.705" y="567.508" rx="2.5" ry="2.5" width="101.285" height="60.5625" stroke="#181818" stroke-width="0.5" fill="#E2E2F0"/><text font-family="Arial" font-size="20" x="819.705" y="593.072">Crawling</text><text font-family="Arial" font-size="20" x="826.389" y="616.354">Service</text></g><g><rect x="1275.2" y="91.9531" rx="2.5" ry="2.5" width="118.268" height="60.5625" stroke="#181818" stroke-width="0.5" fill="#E2E2F0"/><text font-family="Arial" font-size="20" x="1314.56" y="117.518">LLM</text><text font-family="Arial" font-size="20" x="1282.2" y="140.799">(Crawl4AI)</text></g><g><rect x="1275.2" y="567.508" rx="2.5" ry="2.5" width="118.268" height="60.5625" stroke="#181818" stroke-width="0.5" fill="#E2E2F0"/><text font-family="Arial" font-size="20" x="1314.56" y="593.072">LLM</text><text font-family="Arial" font-size="20" x="1282.2" y="616.354">(Crawl4AI)</text></g><g><text font-family="Arial" font-size="15" x="1417.54" y="149.978">DB</text><path d="M1413.46 100.055C1413.46 90.0547 1431.46 90.0547 1431.46 90.0547 1431.46 90.0547 1449.46 90.0547 1449.46 100.055L1449.46 126.055C1449.46 136.055 1431.46 136.055 1431.46 136.055 1431.46 136.055 1413.46 136.055 1413.46 126.055L1413.46 100.055" stroke="#181818" stroke-width="1.5" fill="#E2E2F0"/><path d="M1413.46 100.055C1413.46 110.055 1431.46 110.055 1431.46 110.055 1431.46 110.055 1449.46 110.055 1449.46 100.055" stroke="#181818" stroke-width="1.5" fill="none"/></g><g><text font-family="Arial" font-size="15" x="1417.54" y="581.431">DB</text><path d="M1413.46 594.969C1413.46 584.969 1431.46 584.969 1431.46 584.969 1431.46 584.969 1449.46 584.969 1449.46 594.969L1449.46 620.969C1449.46 630.969 1431.46 630.969 1431.46 630.969 1431.46 630.969 1413.46 630.969 1413.46 620.969L1413.46 594.969" stroke="#181818" stroke-width="1.5" fill="#E2E2F0"/><path d="M1413.46 594.969C1413.46 604.969 1431.46 604.969 1431.46 604.969 1431.46 604.969 1449.46 604.969 1449.46 594.969" stroke="#181818" stroke-width="1.5" fill="none"/></g><g><path d="M311.218 182.977 321.218 186.977 311.218 190.977 315.218 186.977Z" stroke="#181818" fill="#181818"/><line x1="55.2485" y1="186.977" x2="317.218" y2="186.977" stroke="#181818"/><text font-family="Arial" font-size="15" x="115.493" y="181.439">Отваря Swagger UI</text></g><g><path d="M485.079 231.898 495.079 235.898 485.079 239.898 489.079 235.898Z" stroke="#181818" fill="#181818"/><line x1="55.2485" y1="235.898" x2="491.079" y2="235.898" stroke="#181818"/><text font-family="Arial" font-size="15" x="128.467" y="212.9">POST /crawl/generate/json-css-strategy</text><text font-family="Arial" font-size="15" x="182.535" y="230.361">+ body: website_id, html</text></g><g><path d="M851.347 263.359 861.347 267.359 851.347 271.359 855.347 267.359Z" stroke="#181818" fill="#181818"/><line x1="497.079" y1="267.359" x2="857.347" y2="267.359" stroke="#181818"/><text font-family="Arial" font-size="15" x="509.079" y="261.822">generate_json_css_strategy(website_id, html)</text></g><g><path d="M1419.46 294.82 1429.46 298.82 1419.46 302.82 1423.46 298.82Z" stroke="#181818" fill="#181818"/><line x1="863.347" y1="298.82" x2="1425.46" y2="298.82" stroke="#181818"/><text font-family="Arial" font-size="15" x="1033.24" y="293.283">get_website_by_id(website_id)</text></g><g><path d="M874.347 326.281 864.347 330.281 874.347 334.281 870.347 330.281Z" stroke="#181818" fill="#181818"/><line x1="868.347" y1="330.281" x2="1430.46" y2="330.281" stroke="#181818" stroke-dasharray="2 2"/><text font-family="Arial" font-size="15" x="1091.96" y="324.744">Website обект</text></g><g><path d="M1322.33 357.742 1332.33 361.742 1322.33 365.742 1326.33 361.742Z" stroke="#181818" fill="#181818"/><line x1="863.347" y1="361.742" x2="1328.33" y2="361.742" stroke="#181818"/><text font-family="Arial" font-size="15" x="875.347" y="356.205">JsonCssExtractionStrategy.generate_schema(html, prompt)</text></g><g><path d="M874.347 389.203 864.347 393.203 874.347 397.203 870.347 393.203Z" stroke="#181818" fill="#181818"/><line x1="868.347" y1="393.203" x2="1333.33" y2="393.203" stroke="#181818" stroke-dasharray="2 2"/><text font-family="Arial" font-size="15" x="986.525" y="387.666">Създаден CSS/XPath schema</text></g><g><path d="M1419.46 420.664 1429.46 424.664 1419.46 428.664 1423.46 424.664Z" stroke="#181818" fill="#181818"/><line x1="863.347" y1="424.664" x2="1425.46" y2="424.664" stroke="#181818"/><text font-family="Arial" font-size="15" x="989.499" y="419.127">update schema, schema_type, timestamp</text></g><g><path d="M874.347 452.125 864.347 456.125 874.347 460.125 870.347 456.125Z" stroke="#181818" fill="#181818"/><line x1="868.347" y1="456.125" x2="1430.46" y2="456.125" stroke="#181818" stroke-dasharray="2 2"/><text font-family="Arial" font-size="15" x="1069.85" y="450.587">Успешно запазване</text></g><g><path d="M508.079 483.586 498.079 487.586 508.079 491.586 504.079 487.586Z" stroke="#181818" fill="#181818"/><line x1="502.079" y1="487.586" x2="862.347" y2="487.586" stroke="#181818" stroke-dasharray="2 2"/><text font-family="Arial" font-size="15" x="553.577" y="482.048">{ "message": \"Schema saved\" }</text></g><g><path d="M334.218 515.047 324.218 519.047 334.218 523.047 330.218 519.047Z" stroke="#181818" fill="#181818"/><line x1="328.218" y1="519.047" x2="496.079" y2="519.047" stroke="#181818" stroke-dasharray="2 2"/><text font-family="Arial" font-size="15" x="335.218" y="513.509">200 OK + Response</text></g><g><path d="M66.2485 546.508 56.2485 550.508 66.2485 554.508 62.2485 550.508Z" stroke="#181818" fill="#181818"/><line x1="60.2485" y1="550.508" x2="322.218" y2="550.508" stroke="#181818" stroke-dasharray="2 2"/><text font-family="Arial" font-size="15" x="67.2485" y="544.97">Успешно създадена стратегия</text></g></g></svg>