<svg width="1613" height="1110" viewBox="0 0 1613 1110" preserveAspectRatio="none" xmlns="http://www.w3.org/2000/svg" xmlns:xlink="http://www.w3.org/1999/xlink" overflow="hidden"><defs></defs><g><text font-family="Arial" font-weight="700" font-size="25" x="429.133" y="38.2056">Последователност на регистриране на потребител</text><g><rect x="22.2344" y="139.945" width="8" height="881.25" fill-opacity="0"/><line x1="26" y1="139.945" x2="26" y2="1021.2" stroke="#181818" stroke-width="0.5" stroke-dasharray="5 5"/></g><g><rect x="290.969" y="139.945" width="8" height="881.25" fill-opacity="0"/><line x1="294.05" y1="139.945" x2="294.05" y2="1021.2" stroke="#181818" stroke-width="0.5" stroke-dasharray="5 5"/></g><g><rect x="525.305" y="139.945" width="8" height="881.25" fill-opacity="0"/><line x1="528.62" y1="139.945" x2="528.62" y2="1021.2" stroke="#181818" stroke-width="0.5" stroke-dasharray="5 5"/></g><g><rect x="725.102" y="139.945" width="8" height="881.25" fill-opacity="0"/><line x1="728.777" y1="139.945" x2="728.777" y2="1021.2" stroke="#181818" stroke-width="0.5" stroke-dasharray="5 5"/></g><g><rect x="876.313" y="139.945" width="8" height="881.25" fill-opacity="0"/><line x1="879.426" y1="139.945" x2="879.426" y2="1021.2" stroke="#181818" stroke-width="0.5" stroke-dasharray="5 5"/></g><g><rect x="1156.51" y="139.945" width="8" height="881.25" fill-opacity="0"/><line x1="1160.31" y1="139.945" x2="1160.31" y2="1021.2" stroke="#181818" stroke-width="0.5" stroke-dasharray="5 5"/></g><g><rect x="1371.4" y="139.945" width="8" height="881.25" fill-opacity="0"/><line x1="1375.19" y1="139.945" x2="1375.19" y2="1021.2" stroke="#181818" stroke-width="0.5" stroke-dasharray="5 5"/></g><g><rect x="1574.78" y="139.945" width="8" height="881.25" fill-opacity="0"/><line x1="1578.78" y1="139.945" x2="1578.78" y2="1021.2" stroke="#181818" stroke-width="0.5" stroke-dasharray="5 5"/></g><g><text font-family="Arial" font-size="16" x="5" y="136.172">User</text><ellipse cx="26.2344" cy="69.8203" rx="8" ry="8" stroke="#181818" stroke-width="0.5" fill="#E2E2F0"/><path d="M26.2344 77.8203 26.2344 104.82M13.2344 85.8203 39.2344 85.8203M26.2344 104.82 13.2344 119.82M26.2344 104.82 39.2344 119.82" stroke="#181818" stroke-width="0.5" fill="none"/></g><g><text font-family="Arial" font-size="16" x="5" y="1035.05">User</text><ellipse cx="26.2344" cy="1047.32" rx="8" ry="8" stroke="#181818" stroke-width="0.5" fill="#E2E2F0"/><path d="M26.2344 1055.32 26.2344 1082.32M13.2344 1063.32 39.2344 1063.32M26.2344 1082.32 13.2344 1097.32M26.2344 1082.32 39.2344 1097.32" stroke="#181818" stroke-width="0.5" fill="none"/></g><g><rect x="221.05" y="78.3828" rx="2.5" ry="2.5" width="147.838" height="60.5625" stroke="#181818" stroke-width="0.5" fill="#E2E2F0"/><text font-family="Arial" font-size="20" x="233.011" y="103.947">Chrome Ext.</text><text font-family="Arial" font-size="20" x="228.05" y="127.228">(UI - Angular)</text></g><g><rect x="221.05" y="1020.2" rx="2.5" ry="2.5" width="147.838" height="60.5625" stroke="#181818" stroke-width="0.5" fill="#E2E2F0"/><text font-family="Arial" font-size="20" x="233.011" y="1045.76">Chrome Ext.</text><text font-family="Arial" font-size="20" x="228.05" y="1069.04">(UI - Angular)</text></g><g><rect x="475.62" y="78.3828" rx="2.5" ry="2.5" width="107.369" height="60.5625" stroke="#181818" stroke-width="0.5" fill="#E2E2F0"/><text font-family="Arial" font-size="20" x="488.103" y="103.947">AuthSvc</text><text font-family="Arial" font-size="20" x="482.62" y="127.228">(Angular)</text></g><g><rect x="475.62" y="1020.2" rx="2.5" ry="2.5" width="107.369" height="60.5625" stroke="#181818" stroke-width="0.5" fill="#E2E2F0"/><text font-family="Arial" font-size="20" x="488.103" y="1045.76">AuthSvc</text><text font-family="Arial" font-size="20" x="482.62" y="1069.04">(Angular)</text></g><g><rect x="664.777" y="78.3828" rx="2.5" ry="2.5" width="128.648" height="60.5625" stroke="#181818" stroke-width="0.5" fill="#E2E2F0"/><text font-family="Arial" font-size="20" x="689.658" y="103.947">Chrome</text><text font-family="Arial" font-size="20" x="671.777" y="127.228">Identity API</text></g><g><rect x="664.777" y="1020.2" rx="2.5" ry="2.5" width="128.648" height="60.5625" stroke="#181818" stroke-width="0.5" fill="#E2E2F0"/><text font-family="Arial" font-size="20" x="689.658" y="1045.76">Chrome</text><text font-family="Arial" font-size="20" x="671.777" y="1069.04">Identity API</text></g><g><rect x="823.426" y="78.3828" rx="2.5" ry="2.5" width="113.775" height="60.5625" stroke="#181818" stroke-width="0.5" fill="#E2E2F0"/><text font-family="Arial" font-size="20" x="839.083" y="103.947">AuthCtrl</text><text font-family="Arial" font-size="20" x="830.426" y="127.228">(.NET API)</text></g><g><rect x="823.426" y="1020.2" rx="2.5" ry="2.5" width="113.775" height="60.5625" stroke="#181818" stroke-width="0.5" fill="#E2E2F0"/><text font-family="Arial" font-size="20" x="839.083" y="1045.76">AuthCtrl</text><text font-family="Arial" font-size="20" x="830.426" y="1069.04">(.NET API)</text></g><g><rect x="1112.31" y="78.3828" rx="2.5" ry="2.5" width="96.4023" height="60.5625" stroke="#181818" stroke-width="0.5" fill="#E2E2F0"/><text font-family="Arial" font-size="20" x="1119.31" y="103.947">AuthSvc</text><text font-family="Arial" font-size="20" x="1119.91" y="127.228">(Server)</text></g><g><rect x="1112.31" y="1020.2" rx="2.5" ry="2.5" width="96.4023" height="60.5625" stroke="#181818" stroke-width="0.5" fill="#E2E2F0"/><text font-family="Arial" font-size="20" x="1119.31" y="1045.76">AuthSvc</text><text font-family="Arial" font-size="20" x="1119.91" y="1069.04">(Server)</text></g><g><rect x="1322.19" y="55.1016" rx="2.5" ry="2.5" width="106.412" height="83.8438" stroke="#181818" stroke-width="0.5" fill="#E2E2F0"/><text font-family="Arial" font-size="20" x="1333.52" y="80.666">UserMgr</text><text font-family="Arial" font-size="20" x="1329.19" y="103.947">(ASP.NET</text><text font-family="Arial" font-size="20" x="1333.17" y="127.228">Identity)</text></g><g><rect x="1322.19" y="1020.2" rx="2.5" ry="2.5" width="106.412" height="83.8438" stroke="#181818" stroke-width="0.5" fill="#E2E2F0"/><text font-family="Arial" font-size="20" x="1333.52" y="1045.76">UserMgr</text><text font-family="Arial" font-size="20" x="1329.19" y="1069.04">(ASP.NET</text><text font-family="Arial" font-size="20" x="1333.17" y="1092.32">Identity)</text></g><g><text font-family="Arial" font-size="16" x="1564.13" y="136.172">DB</text><path d="M1560.78 85.3203C1560.78 75.3203 1578.78 75.3203 1578.78 75.3203 1578.78 75.3203 1596.78 75.3203 1596.78 85.3203L1596.78 111.32C1596.78 121.32 1578.78 121.32 1578.78 121.32 1578.78 121.32 1560.78 121.32 1560.78 111.32L1560.78 85.3203" stroke="#181818" stroke-width="1.5" fill="#E2E2F0"/><path d="M1560.78 85.3203C1560.78 95.3203 1578.78 95.3203 1578.78 95.3203 1578.78 95.3203 1596.78 95.3203 1596.78 85.3203" stroke="#181818" stroke-width="1.5" fill="none"/></g><g><text font-family="Arial" font-size="16" x="1564.13" y="1035.05">DB</text><path d="M1560.78 1048.82C1560.78 1038.82 1578.78 1038.82 1578.78 1038.82 1578.78 1038.82 1596.78 1038.82 1596.78 1048.82L1596.78 1074.82C1596.78 1084.82 1578.78 1084.82 1578.78 1084.82 1578.78 1084.82 1560.78 1084.82 1560.78 1074.82L1560.78 1048.82" stroke="#181818" stroke-width="1.5" fill="#E2E2F0"/><path d="M1560.78 1048.82C1560.78 1058.82 1578.78 1058.82 1578.78 1058.82 1578.78 1058.82 1596.78 1058.82 1596.78 1048.82" stroke="#181818" stroke-width="1.5" fill="none"/></g><rect x="0" y="172.258" width="1601.78" height="3" stroke="#EEEEEE" fill="#EEEEEE"/><line x1="0" y1="172.258" x2="1601.78" y2="172.258" stroke="#000000"/><line x1="0" y1="175.258" x2="1601.78" y2="175.258" stroke="#000000"/><rect x="726.161" y="159.945" width="149.461" height="26.625" stroke="#000000" stroke-width="2" fill="#EEEEEE"/><text font-family="Arial" font-weight="700" font-size="16" x="732.161" y="178.797">Старт на вход</text><g><path d="M282.969 217.195 292.969 221.195 282.969 225.195 286.969 221.195Z" stroke="#181818" fill="#181818"/><line x1="26.2344" y1="221.195" x2="288.969" y2="221.195" stroke="#181818"/><text font-family="Arial" font-size="16" x="38.2344" y="215.422">Натиска "Sign in with Google"</text></g><g><path d="M517.305 249.82 527.305 253.82 517.305 257.82 521.305 253.82Z" stroke="#181818" fill="#181818"/><line x1="294.969" y1="253.82" x2="523.305" y2="253.82" stroke="#181818"/><text font-family="Arial" font-size="16" x="381.926" y="248.047">signIn()</text></g><g><path d="M717.102 282.445 727.102 286.445 717.102 290.445 721.102 286.445Z" stroke="#181818" fill="#181818"/><line x1="529.305" y1="286.445" x2="723.102" y2="286.445" stroke="#181818"/><text font-family="Arial" font-size="16" x="541.305" y="280.672">launchWebAuthFlow()</text></g><g><path d="M37.2344 315.07 27.2344 319.07 37.2344 323.07 33.2344 319.07Z" stroke="#181818" fill="#181818"/><line x1="31.2344" y1="319.07" x2="728.102" y2="319.07" stroke="#181818"/><text font-family="Arial" font-size="16" x="282.09" y="313.297">Показва Google Sign-In</text></g><g><path d="M717.102 347.695 727.102 351.695 717.102 355.695 721.102 351.695Z" stroke="#181818" fill="#181818"/><line x1="26.2344" y1="351.695" x2="723.102" y2="351.695" stroke="#181818"/><text font-family="Arial" font-size="16" x="315.512" y="345.922">Избира акаунт</text></g><g><path d="M540.305 380.32 530.305 384.32 540.305 388.32 536.305 384.32Z" stroke="#181818" fill="#181818"/><line x1="534.305" y1="384.32" x2="728.102" y2="384.32" stroke="#181818" stroke-dasharray="2 2"/><text font-family="Arial" font-size="16" x="593.734" y="378.547">ID Token</text></g><rect x="0" y="414.633" width="1601.78" height="3" stroke="#EEEEEE" fill="#EEEEEE"/><line x1="0" y1="414.633" x2="1601.78" y2="414.633" stroke="#000000"/><line x1="0" y1="417.633" x2="1601.78" y2="417.633" stroke="#000000"/><rect x="675.684" y="402.32" width="250.414" height="26.625" stroke="#000000" stroke-width="2" fill="#EEEEEE"/><text font-family="Arial" font-weight="700" font-size="16" x="681.684" y="421.172">Изпращане към сървъра</text><g><path d="M868.313 478.195 878.313 482.195 868.313 486.195 872.313 482.195Z" stroke="#181818" fill="#181818"/><line x1="529.305" y1="482.195" x2="874.313" y2="482.195" stroke="#181818"/><text font-family="Arial" font-size="16" x="592.676" y="457.797">POST /api/Auth/google-login</text><text font-family="Arial" font-size="16" x="657.836" y="476.422">{ idToken }</text></g><g><path d="M1148.51 510.82 1158.51 514.82 1148.51 518.82 1152.51 514.82Z" stroke="#181818" fill="#181818"/><line x1="880.313" y1="514.82" x2="1154.51" y2="514.82" stroke="#181818"/><text font-family="Arial" font-size="16" x="892.313" y="509.047">AuthenticateWithGoogleAsync()</text></g><g><path d="M740.102 543.445 730.102 547.445 740.102 551.445 736.102 547.445Z" stroke="#181818" fill="#181818"/><line x1="734.102" y1="547.445" x2="1159.51" y2="547.445" stroke="#181818"/><text font-family="Arial" font-size="16" x="850.153" y="541.672">ValidateAsync(idToken)</text></g><g><path d="M1148.51 576.07 1158.51 580.07 1148.51 584.07 1152.51 580.07Z" stroke="#181818" fill="#181818"/><line x1="729.102" y1="580.07" x2="1154.51" y2="580.07" stroke="#181818" stroke-dasharray="2 2"/><text font-family="Arial" font-size="16" x="854.625" y="574.297">Payload (email, name)</text></g><g><path d="M1363.4 608.695 1373.4 612.695 1363.4 616.695 1367.4 612.695Z" stroke="#181818" fill="#181818"/><line x1="1160.51" y1="612.695" x2="1369.4" y2="612.695" stroke="#181818"/><text font-family="Arial" font-size="16" x="1188.48" y="606.922">FindByEmailAsync()</text></g><g><path d="M1171.51 641.32 1161.51 645.32 1171.51 649.32 1167.51 645.32Z" stroke="#181818" fill="#181818"/><line x1="1165.51" y1="645.32" x2="1374.4" y2="645.32" stroke="#181818" stroke-dasharray="2 2"/><text font-family="Arial" font-size="16" x="1228.47" y="639.547">Not found</text></g><g><path d="M1363.4 673.945 1373.4 677.945 1363.4 681.945 1367.4 677.945Z" stroke="#181818" fill="#181818"/><line x1="1160.51" y1="677.945" x2="1369.4" y2="677.945" stroke="#181818"/><text font-family="Arial" font-size="16" x="1192.88" y="672.172">CreateAsync(User)</text></g><g><path d="M1566.78 706.57 1576.78 710.57 1566.78 714.57 1570.78 710.57Z" stroke="#181818" fill="#181818"/><line x1="1375.4" y1="710.57" x2="1572.78" y2="710.57" stroke="#181818"/><text font-family="Arial" font-size="16" x="1387.4" y="704.797">Запис на потребител</text></g><g><path d="M1386.4 739.195 1376.4 743.195 1386.4 747.195 1382.4 743.195Z" stroke="#181818" fill="#181818"/><line x1="1380.4" y1="743.195" x2="1577.78" y2="743.195" stroke="#181818" stroke-dasharray="2 2"/><text font-family="Arial" font-size="16" x="1465.55" y="737.422">OK</text></g><g><path d="M1171.51 771.82 1161.51 775.82 1171.51 779.82 1167.51 775.82Z" stroke="#181818" fill="#181818"/><line x1="1165.51" y1="775.82" x2="1374.4" y2="775.82" stroke="#181818" stroke-dasharray="2 2"/><text font-family="Arial" font-size="16" x="1235.75" y="770.047">Success</text></g><g><line x1="1160.51" y1="808.445" x2="1202.51" y2="808.445" stroke="#181818"/><line x1="1202.51" y1="808.445" x2="1202.51" y2="821.445" stroke="#181818"/><line x1="1161.51" y1="821.445" x2="1202.51" y2="821.445" stroke="#181818"/><path d="M1171.51 817.445 1161.51 821.445 1171.51 825.445 1167.51 821.445Z" stroke="#181818" fill="#181818"/><text font-family="Arial" font-size="16" x="1167.51" y="802.672">Генерира JWT + Refresh</text></g><g><path d="M1566.78 850.07 1576.78 854.07 1566.78 858.07 1570.78 854.07Z" stroke="#181818" fill="#181818"/><line x1="1160.51" y1="854.07" x2="1572.78" y2="854.07" stroke="#181818"/><text font-family="Arial" font-size="16" x="1274.41" y="848.297">Запис на RefreshToken</text></g><g><path d="M1171.51 882.695 1161.51 886.695 1171.51 890.695 1167.51 886.695Z" stroke="#181818" fill="#181818"/><line x1="1165.51" y1="886.695" x2="1577.78" y2="886.695" stroke="#181818" stroke-dasharray="2 2"/><text font-family="Arial" font-size="16" x="1358.1" y="880.922">OK</text></g><g><path d="M891.313 915.32 881.313 919.32 891.313 923.32 887.313 919.32Z" stroke="#181818" fill="#181818"/><line x1="885.313" y1="919.32" x2="1159.51" y2="919.32" stroke="#181818" stroke-dasharray="2 2"/><text font-family="Arial" font-size="16" x="929.751" y="913.547">{ JWT, RefreshToken }</text></g><g><path d="M540.305 966.57 530.305 970.57 540.305 974.57 536.305 970.57Z" stroke="#181818" fill="#181818"/><line x1="534.305" y1="970.57" x2="879.313" y2="970.57" stroke="#181818"/><text font-family="Arial" font-size="16" x="622.711" y="946.172">JWT + RefreshToken</text><text font-family="Arial" font-size="16" x="625.469" y="964.797">(HTTP-only cookies)</text></g><g><path d="M305.969 999.195 295.969 1003.2 305.969 1007.2 301.969 1003.2Z" stroke="#181818" fill="#181818"/><line x1="299.969" y1="1003.2" x2="528.305" y2="1003.2" stroke="#181818"/><text font-family="Arial" font-size="16" x="306.969" y="997.422">Пренасочване към Home</text></g></g></svg>