<svg width="1709" height="1393" viewBox="0 0 1709 1393" preserveAspectRatio="none" xmlns="http://www.w3.org/2000/svg" xmlns:xlink="http://www.w3.org/1999/xlink" overflow="hidden"><defs></defs><g><text font-family="Arial" font-weight="700" font-size="28" x="426.213" y="40.9902">Последователност на заявка за търсене на продукт</text><rect x="1020.77" y="684.891" width="403.126" height="291.625" stroke="#000000" stroke-width="1.5" fill="none"/><g><rect x="30.0552" y="139.547" width="8" height="1168.55" fill-opacity="0"/><line x1="34" y1="139.547" x2="34" y2="1308.09" stroke="#181818" stroke-width="0.5" stroke-dasharray="5 5"/></g><g><rect x="356.601" y="139.547" width="8" height="1168.55" fill-opacity="0"/><line x1="360.214" y1="139.547" x2="360.214" y2="1308.09" stroke="#181818" stroke-width="0.5" stroke-dasharray="5 5"/></g><g><rect x="664.586" y="139.547" width="8" height="1168.55" fill-opacity="0"/><line x1="668.488" y1="139.547" x2="668.488" y2="1308.09" stroke="#181818" stroke-width="0.5" stroke-dasharray="5 5"/></g><g><rect x="778.655" y="139.547" width="8" height="1168.55" fill-opacity="0"/><line x1="781.685" y1="139.547" x2="781.685" y2="1308.09" stroke="#181818" stroke-width="0.5" stroke-dasharray="5 5"/></g><g><rect x="1114.74" y="139.547" width="8" height="1168.55" fill-opacity="0"/><line x1="1117.77" y1="139.547" x2="1117.77" y2="1308.09" stroke="#181818" stroke-width="0.5" stroke-dasharray="5 5"/></g><g><rect x="1414.89" y="139.547" width="8" height="1168.55" fill-opacity="0"/><line x1="1418.31" y1="139.547" x2="1418.31" y2="1308.09" stroke="#181818" stroke-width="0.5" stroke-dasharray="5 5"/></g><g><rect x="1604.06" y="139.547" width="8" height="1168.55" fill-opacity="0"/><line x1="1607.47" y1="139.547" x2="1607.47" y2="1308.09" stroke="#181818" stroke-width="0.5" stroke-dasharray="5 5"/></g><g><text font-family="Arial" font-size="18" x="5" y="135.302">Client</text><ellipse cx="34.0552" cy="67.0938" rx="8" ry="8" stroke="#181818" stroke-width="0.5" fill="#E2E2F0"/><path d="M34.0552 75.0938 34.0552 102.094M21.0552 83.0938 47.0552 83.0938M34.0552 102.094 21.0552 117.094M34.0552 102.094 47.0552 117.094" stroke="#181818" stroke-width="0.5" fill="none"/></g><g><text font-family="Arial" font-size="18" x="5" y="1323.8">Client</text><ellipse cx="34.0552" cy="1336.55" rx="8" ry="8" stroke="#181818" stroke-width="0.5" fill="#E2E2F0"/><path d="M34.0552 1344.55 34.0552 1371.55M21.0552 1352.55 47.0552 1352.55M34.0552 1371.55 21.0552 1386.55M34.0552 1371.55 47.0552 1386.55" stroke="#181818" stroke-width="0.5" fill="none"/></g><g><rect x="312.214" y="77.9844" rx="2.5" ry="2.5" width="96.7734" height="60.5625" stroke="#181818" stroke-width="0.5" fill="#E2E2F0"/><text font-family="Arial" font-size="20" x="337.515" y="103.549">.NET</text><text font-family="Arial" font-size="20" x="319.214" y="126.83">Web API</text></g><g><rect x="312.214" y="1307.09" rx="2.5" ry="2.5" width="96.7734" height="60.5625" stroke="#181818" stroke-width="0.5" fill="#E2E2F0"/><text font-family="Arial" font-size="20" x="337.515" y="1332.66">.NET</text><text font-family="Arial" font-size="20" x="319.214" y="1355.94">Web API</text></g><g><rect x="630.488" y="77.9844" rx="2.5" ry="2.5" width="76.1973" height="60.5625" stroke="#181818" stroke-width="0.5" fill="#E2E2F0"/><text font-family="Arial" font-size="20" x="641.15" y="103.549">Redis</text><text font-family="Arial" font-size="20" x="637.488" y="126.83">Cache</text></g><g><rect x="630.488" y="1307.09" rx="2.5" ry="2.5" width="76.1973" height="60.5625" stroke="#181818" stroke-width="0.5" fill="#E2E2F0"/><text font-family="Arial" font-size="20" x="641.15" y="1332.66">Redis</text><text font-family="Arial" font-size="20" x="637.488" y="1355.94">Cache</text></g><g><rect x="726.685" y="77.9844" rx="2.5" ry="2.5" width="111.939" height="60.5625" stroke="#181818" stroke-width="0.5" fill="#E2E2F0"/><text font-family="Arial" font-size="20" x="733.685" y="103.549">RabbitMQ</text><text font-family="Arial" font-size="20" x="749.51" y="126.83">Broker</text></g><g><rect x="726.685" y="1307.09" rx="2.5" ry="2.5" width="111.939" height="60.5625" stroke="#181818" stroke-width="0.5" fill="#E2E2F0"/><text font-family="Arial" font-size="20" x="733.685" y="1332.66">RabbitMQ</text><text font-family="Arial" font-size="20" x="749.51" y="1355.94">Broker</text></g><g><rect x="1035.77" y="77.9844" rx="2.5" ry="2.5" width="165.943" height="60.5625" stroke="#181818" stroke-width="0.5" fill="#E2E2F0"/><text font-family="Arial" font-size="20" x="1065.07" y="103.549">Python API</text><text font-family="Arial" font-size="20" x="1042.77" y="126.83">(Crawling + AI)</text></g><g><rect x="1035.77" y="1307.09" rx="2.5" ry="2.5" width="165.943" height="60.5625" stroke="#181818" stroke-width="0.5" fill="#E2E2F0"/><text font-family="Arial" font-size="20" x="1065.07" y="1332.66">Python API</text><text font-family="Arial" font-size="20" x="1042.77" y="1355.94">(Crawling + AI)</text></g><g><rect x="1334.31" y="77.9844" rx="2.5" ry="2.5" width="169.166" height="60.5625" stroke="#181818" stroke-width="0.5" fill="#E2E2F0"/><text font-family="Arial" font-size="20" x="1341.31" y="103.549">NotificationHub</text><text font-family="Arial" font-size="20" x="1373.42" y="126.83">(SignalR)</text></g><g><rect x="1334.31" y="1307.09" rx="2.5" ry="2.5" width="169.166" height="60.5625" stroke="#181818" stroke-width="0.5" fill="#E2E2F0"/><text font-family="Arial" font-size="20" x="1341.31" y="1332.66">NotificationHub</text><text font-family="Arial" font-size="20" x="1373.42" y="1355.94">(SignalR)</text></g><g><rect x="1523.47" y="101.266" rx="2.5" ry="2.5" width="169.166" height="37.2813" stroke="#181818" stroke-width="0.5" fill="#E2E2F0"/><text font-family="Arial" font-size="20" x="1530.47" y="126.83">NotificationHub</text></g><g><rect x="1523.47" y="1307.09" rx="2.5" ry="2.5" width="169.166" height="37.2813" stroke="#181818" stroke-width="0.5" fill="#E2E2F0"/><text font-family="Arial" font-size="20" x="1530.47" y="1332.66">NotificationHub</text></g><rect x="0" y="173.023" width="1702.64" height="3" stroke="#EEEEEE" fill="#EEEEEE"/><line x1="0" y1="173.023" x2="1702.64" y2="173.023" stroke="#000000"/><line x1="0" y1="176.023" x2="1702.64" y2="176.023" stroke="#000000"/><rect x="647.357" y="159.547" width="407.926" height="28.9531" stroke="#000000" stroke-width="2" fill="#EEEEEE"/><text font-family="Arial" font-weight="700" font-size="18" x="653.357" y="180.255">Стъпка 1: Потребител подава заявка</text><g><path d="M348.601 242.406 358.601 246.406 348.601 250.406 352.601 246.406Z" stroke="#181818" fill="#181818"/><line x1="34.0552" y1="246.406" x2="354.601" y2="246.406" stroke="#181818"/><text font-family="Arial" font-size="18" x="137.571" y="219.208">POST /lookup</text><text font-family="Arial" font-size="18" x="60.1045" y="240.161">(ProductLookupRequestClient)</text></g><g><line x1="360.601" y1="281.359" x2="402.601" y2="281.359" stroke="#181818"/><line x1="402.601" y1="281.359" x2="402.601" y2="294.359" stroke="#181818"/><line x1="361.601" y1="294.359" x2="402.601" y2="294.359" stroke="#181818"/><path d="M371.601 290.359 361.601 294.359 371.601 298.359 367.601 294.359Z" stroke="#181818" fill="#181818"/><text font-family="Arial" font-size="18" x="367.601" y="275.114">Извлича UserId от JWT</text></g><rect x="0" y="325.836" width="1702.64" height="3" stroke="#EEEEEE" fill="#EEEEEE"/><line x1="0" y1="325.836" x2="1702.64" y2="325.836" stroke="#000000"/><line x1="0" y1="328.836" x2="1702.64" y2="328.836" stroke="#000000"/><rect x="672.81" y="312.359" width="357.019" height="28.9531" stroke="#000000" stroke-width="2" fill="#EEEEEE"/><text font-family="Arial" font-weight="700" font-size="18" x="678.81" y="333.067">Стъпка 2: Генериране на заявка</text><g><line x1="360.601" y1="378.266" x2="402.601" y2="378.266" stroke="#181818"/><line x1="402.601" y1="378.266" x2="402.601" y2="391.266" stroke="#181818"/><line x1="361.601" y1="391.266" x2="402.601" y2="391.266" stroke="#181818"/><path d="M371.601 387.266 361.601 391.266 371.601 395.266 367.601 391.266Z" stroke="#181818" fill="#181818"/><text font-family="Arial" font-size="18" x="367.601" y="372.021">Създава ProductLookupRequest</text></g><g><path d="M656.586 422.219 666.586 426.219 656.586 430.219 660.586 426.219Z" stroke="#181818" fill="#181818"/><line x1="360.601" y1="426.219" x2="662.586" y2="426.219" stroke="#181818"/><text font-family="Arial" font-size="18" x="411.511" y="419.974">Set(RequestId, connId)</text></g><g><path d="M770.655 478.125 780.655 482.125 770.655 486.125 774.655 482.125Z" stroke="#181818" fill="#181818"/><line x1="360.601" y1="482.125" x2="776.655" y2="482.125" stroke="#181818"/><text font-family="Arial" font-size="18" x="539.39" y="454.927">Publish</text><text font-family="Arial" font-size="18" x="455.401" y="475.88">"product.lookup", request</text></g><g><path d="M45.0552 534.031 35.0552 538.031 45.0552 542.031 41.0552 538.031Z" stroke="#181818" fill="#181818"/><line x1="39.0552" y1="538.031" x2="359.601" y2="538.031" stroke="#181818" stroke-dasharray="2 2"/><text font-family="Arial" font-size="18" x="164.303" y="510.833">200 OK</text><text font-family="Arial" font-size="18" x="46.0552" y="531.786">{ status: "published", requestId }</text></g><rect x="0" y="569.508" width="1702.64" height="3" stroke="#EEEEEE" fill="#EEEEEE"/><line x1="0" y1="569.508" x2="1702.64" y2="569.508" stroke="#000000"/><line x1="0" y1="572.508" x2="1702.64" y2="572.508" stroke="#000000"/><rect x="694.33" y="556.031" width="313.979" height="28.9531" stroke="#000000" stroke-width="2" fill="#EEEEEE"/><text font-family="Arial" font-weight="700" font-size="18" x="700.33" y="576.739">Стъпка 3: Python обработка</text><g><path d="M1106.74 617.938 1116.74 621.938 1106.74 625.938 1110.74 621.938Z" stroke="#181818" fill="#181818"/><line x1="782.655" y1="621.938" x2="1112.74" y2="621.938" stroke="#181818"/><text font-family="Arial" font-size="18" x="846.55" y="615.692">ProductLookupRequest</text></g><g><line x1="1118.74" y1="656.891" x2="1160.74" y2="656.891" stroke="#181818"/><line x1="1160.74" y1="656.891" x2="1160.74" y2="669.891" stroke="#181818"/><line x1="1119.74" y1="669.891" x2="1160.74" y2="669.891" stroke="#181818"/><path d="M1129.74 665.891 1119.74 669.891 1129.74 673.891 1125.74 669.891Z" stroke="#181818" fill="#181818"/><text font-family="Arial" font-size="18" x="1125.74" y="650.645">Проверява дали съществува</text></g><path d="M1020.77 684.891 1092.69 684.891 1092.69 697.844 1082.69 707.844 1020.77 707.844 1020.77 684.891" stroke="#000000" stroke-width="1.5" fill="#EEEEEE"/><rect x="1020.77" y="684.891" width="403.126" height="291.625" stroke="#000000" stroke-width="1.5" fill="none"/><text font-family="Arial" font-weight="700" font-size="18" x="1035.77" y="702.599">alt</text><text font-family="Arial" font-weight="700" font-size="18" x="1107.69" y="703.599">[Продукт съществува]</text><g><line x1="1118.74" y1="740.75" x2="1160.74" y2="740.75" stroke="#181818"/><line x1="1160.74" y1="740.75" x2="1160.74" y2="753.75" stroke="#181818"/><line x1="1119.74" y1="753.75" x2="1160.74" y2="753.75" stroke="#181818"/><path d="M1129.74 749.75 1119.74 753.75 1129.74 757.75 1125.74 753.75Z" stroke="#181818" fill="#181818"/><text font-family="Arial" font-size="18" x="1125.74" y="734.505">Намира оферти от БД</text></g><line x1="1020.77" y1="762.75" x2="1423.89" y2="762.75" stroke="#000000" stroke-dasharray="2 2"/><text font-family="Arial" font-weight="700" font-size="18" x="1025.77" y="779.458">[Нов продукт]</text><g><line x1="1118.74" y1="811.656" x2="1160.74" y2="811.656" stroke="#181818"/><line x1="1160.74" y1="811.656" x2="1160.74" y2="824.656" stroke="#181818"/><line x1="1119.74" y1="824.656" x2="1160.74" y2="824.656" stroke="#181818"/><path d="M1129.74 820.656 1119.74 824.656 1129.74 828.656 1125.74 824.656Z" stroke="#181818" fill="#181818"/><text font-family="Arial" font-size="18" x="1125.74" y="805.411">Извлича категория / добавя</text></g><g><line x1="1118.74" y1="859.609" x2="1160.74" y2="859.609" stroke="#181818"/><line x1="1160.74" y1="859.609" x2="1160.74" y2="872.609" stroke="#181818"/><line x1="1119.74" y1="872.609" x2="1160.74" y2="872.609" stroke="#181818"/><path d="M1129.74 868.609 1119.74 872.609 1129.74 876.609 1125.74 872.609Z" stroke="#181818" fill="#181818"/><text font-family="Arial" font-size="18" x="1125.74" y="853.364">Crawling на сайтове</text></g><g><line x1="1118.74" y1="907.562" x2="1160.74" y2="907.562" stroke="#181818"/><line x1="1160.74" y1="907.562" x2="1160.74" y2="920.562" stroke="#181818"/><line x1="1119.74" y1="920.562" x2="1160.74" y2="920.562" stroke="#181818"/><path d="M1129.74 916.562 1119.74 920.562 1129.74 924.562 1125.74 920.562Z" stroke="#181818" fill="#181818"/><text font-family="Arial" font-size="18" x="1125.74" y="901.317">Филтрира и валидира оферти</text></g><g><line x1="1118.74" y1="955.516" x2="1160.74" y2="955.516" stroke="#181818"/><line x1="1160.74" y1="955.516" x2="1160.74" y2="968.516" stroke="#181818"/><line x1="1119.74" y1="968.516" x2="1160.74" y2="968.516" stroke="#181818"/><path d="M1129.74 964.516 1119.74 968.516 1129.74 972.516 1125.74 968.516Z" stroke="#181818" fill="#181818"/><text font-family="Arial" font-size="18" x="1125.74" y="949.27">Избира най-добра чрез LLM</text></g><rect x="0" y="1006.99" width="1702.64" height="3" stroke="#EEEEEE" fill="#EEEEEE"/><line x1="0" y1="1006.99" x2="1702.64" y2="1006.99" stroke="#000000"/><line x1="0" y1="1009.99" x2="1702.64" y2="1009.99" stroke="#000000"/><rect x="741.18" y="993.516" width="220.279" height="28.9531" stroke="#000000" stroke-width="2" fill="#EEEEEE"/><text font-family="Arial" font-weight="700" font-size="18" x="747.18" y="1014.22">Стъпка 4: Резултат</text><g><path d="M793.655 1076.38 783.655 1080.38 793.655 1084.38 789.655 1080.38Z" stroke="#181818" fill="#181818"/><line x1="787.655" y1="1080.38" x2="1117.74" y2="1080.38" stroke="#181818"/><text font-family="Arial" font-size="18" x="918.457" y="1053.18">Publish</text><text font-family="Arial" font-size="18" x="794.655" y="1074.13">"product.result", ProductResultDto</text></g><rect x="0" y="1111.85" width="1702.64" height="3" stroke="#EEEEEE" fill="#EEEEEE"/><line x1="0" y1="1111.85" x2="1702.64" y2="1111.85" stroke="#000000"/><line x1="0" y1="1114.85" x2="1702.64" y2="1114.85" stroke="#000000"/><rect x="717.204" y="1098.38" width="268.232" height="28.9531" stroke="#000000" stroke-width="2" fill="#EEEEEE"/><text font-family="Arial" font-weight="700" font-size="18" x="723.204" y="1119.08">Стъпка 5: Уведомление</text><g><path d="M371.601 1160.28 361.601 1164.28 371.601 1168.28 367.601 1164.28Z" stroke="#181818" fill="#181818"/><line x1="365.601" y1="1164.28" x2="781.655" y2="1164.28" stroke="#181818"/><text font-family="Arial" font-size="18" x="492.922" y="1158.04">ProductResultDto</text></g><g><path d="M656.586 1195.23 666.586 1199.23 656.586 1203.23 660.586 1199.23Z" stroke="#181818" fill="#181818"/><line x1="360.601" y1="1199.23" x2="662.586" y2="1199.23" stroke="#181818"/><text font-family="Arial" font-size="18" x="374.039" y="1192.99">Get(connectionId by requestId)</text></g><g><path d="M1596.06 1230.19 1606.06 1234.19 1596.06 1238.19 1600.06 1234.19Z" stroke="#181818" fill="#181818"/><line x1="360.601" y1="1234.19" x2="1602.06" y2="1234.19" stroke="#181818"/><text font-family="Arial" font-size="18" x="786.914" y="1227.94">.SendAsync("ReceiveProductResult", result)</text></g><g><path d="M45.0552 1286.09 35.0552 1290.09 45.0552 1294.09 41.0552 1290.09Z" stroke="#181818" fill="#181818"/><line x1="39.0552" y1="1290.09" x2="1607.06" y2="1290.09" stroke="#181818" stroke-dasharray="2 2"/><text font-family="Arial" font-size="18" x="762.771" y="1262.9">SignalR Push</text><text font-family="Arial" font-size="18" x="689.994" y="1283.85">ReceiveProductResult(result)</text></g></g></svg>